<svg xmlns="http://www.w3.org/2000/svg" width="790" height="232" viewBox="0 0 790 232" fill="none">
    <path d="M258.734 45.2744V155.851H233.518V0H258.734L320.811 93.3493L383.081 0H408.297V155.851H383.081V45.2744L320.714 138.223L258.734 45.2744ZM452.954 0.00137612V155.853H427.738V0.00137612H452.954ZM497.418 155.853H472.202V0.00137612H498.187L603.863 116.99V0.00137612H629.08V155.853H603.863L497.418 38.464V155.853ZM727.249 155.853H702.033V23.2386H641.015V0.20229H790V23.2386H727.25L727.249 155.853Z" fill="url(#paint0_linear_401_30)"/>
    <path fill-rule="evenodd" clip-rule="evenodd" d="M188.807 0.00244141L187.798 81.1259C187.798 110.76 161.599 159.189 121.216 159.189L58.8295 160.026C66.2354 150.038 75.352 138.824 82.4558 129.259C121.58 128.169 149.023 128.704 157.335 77.6931C158.834 68.4956 157.889 43.4388 157.643 32.9847C149.825 32.972 75.5437 31.707 69.9617 33.8337C40.4418 45.0731 34.6654 63.1667 32.976 83.0546L31.7246 124.302C39.6284 123.882 95.079 73.4764 124.487 73.1156C76.5449 110.93 58.265 138.606 0.540561 213C0.275636 206.801 -0.680195 84.9365 0.8388 78.2492C0.8388 48.7393 35.7557 0.763712 67.387 0.763712L188.807 0.00244141Z" fill="url(#paint1_linear_401_30)"/>
    <path d="M252.772 215.838C255.46 214.746 257.266 212.52 257.266 209.16C257.266 204.372 253.486 201.6 246.934 201.6H234.25V231H247.774C255.124 231 258.82 228.144 258.82 223.146C258.82 219.156 256.552 216.678 252.772 215.838ZM246.724 204.162C251.428 204.162 254.158 205.968 254.158 209.496C254.158 213.024 251.428 214.83 246.724 214.83H237.358V204.162H246.724ZM247.732 228.438H237.358V217.392H247.732C252.898 217.392 255.712 219.072 255.712 222.894C255.712 226.758 252.898 228.438 247.732 228.438Z" fill="#656565"/>
    <path d="M308.559 201.6H305.451L295.371 218.106L285.291 201.6H281.973L293.733 220.836V231H296.799V220.836L308.559 201.6Z" fill="#656565"/>
    <path d="M379.98 231.252C384.306 231.252 388.17 229.782 390.774 226.926L388.8 224.952C386.406 227.43 383.466 228.48 380.106 228.48C373.008 228.48 367.674 223.272 367.674 216.3C367.674 209.328 373.008 204.12 380.106 204.12C383.466 204.12 386.406 205.17 388.8 207.606L390.774 205.632C388.17 202.776 384.306 201.348 380.022 201.348C371.16 201.348 364.608 207.69 364.608 216.3C364.608 224.91 371.16 231.252 379.98 231.252Z" fill="#656565"/>
    <path d="M421.927 228.312V217.392H437.131V214.746H421.927V204.288H438.979V201.6H418.819V231H439.609V228.312H421.927Z" fill="#656565"/>
    <path d="M489.839 201.6V225.456L470.897 201.6H468.335V231H471.443V207.144L490.343 231H492.905V201.6H489.839Z" fill="#656565"/>
    <path d="M529.633 231H532.741V204.288H543.073V201.6H519.301V204.288H529.633V231Z" fill="#656565"/>
    <path d="M572.566 228.312V217.392H587.77V214.746H572.566V204.288H589.618V201.6H569.458V231H590.248V228.312H572.566Z" fill="#656565"/>
    <path d="M642.452 231L635.27 220.92C639.554 219.534 641.99 216.3 641.99 211.68C641.99 205.38 637.454 201.6 629.978 201.6H618.974V231H622.082V221.676H629.978C630.818 221.676 631.574 221.634 632.33 221.55L639.05 231H642.452ZM629.894 219.03H622.082V204.288H629.894C635.774 204.288 638.882 206.976 638.882 211.68C638.882 216.3 635.774 219.03 629.894 219.03Z" fill="#656565"/>
    <defs>
    <linearGradient id="paint0_linear_401_30" x1="-91" y1="21.0002" x2="811.522" y2="-228.893" gradientUnits="userSpaceOnUse">
    <stop stop-color="#27AE60"/>
    <stop offset="1" stop-color="#309396"/>
    </linearGradient>
    <linearGradient id="paint1_linear_401_30" x1="-91" y1="21.0002" x2="811.522" y2="-228.893" gradientUnits="userSpaceOnUse">
    <stop stop-color="#27AE60"/>
    <stop offset="1" stop-color="#309396"/>
    </linearGradient>
    </defs>
</svg>